<svg width="590" height="260" viewBox="0 0 590 260" fill="none" xmlns="http://www.w3.org/2000/svg">
<path d="M130.8 173C132.533 173 134.4 172.333 136.4 171C138.533 169.667 140.733 167.866 143 165.6C142.2 164.4 141.8 163 141.8 161.4C141.8 159.267 142.533 157.467 144 156C145.467 154.533 147.2 153.8 149.2 153.8C150.4 153.8 151.467 154 152.4 154.4C154.4 151.6 156.267 148.8 158 146C159.867 143.067 161.4 140.267 162.6 137.6C163.933 134.933 165 132.533 165.8 130.4C166.6 128.133 167 126.333 167 125C167 122.467 166.533 121.2 165.6 121.2C164.667 121.2 163.067 122.133 160.8 124C158.533 125.733 156 128.067 153.2 131C150.4 133.933 147.467 137.2 144.4 140.8C141.467 144.4 138.733 148 136.2 151.6C133.8 155.2 131.8 158.6 130.2 161.8C128.6 165 127.8 167.6 127.8 169.6C127.8 171.866 128.8 173 130.8 173Z" fill="white"/>
<path d="M355.931 164.2C352.998 167.133 350.731 168.6 349.131 168.6C347.798 168.6 346.865 168.267 346.331 167.6C345.931 166.933 345.731 166.067 345.731 165C345.731 162.067 346.265 159.133 347.331 156.2C348.531 153.133 349.931 150.4 351.531 148C353.131 145.6 354.798 143.667 356.531 142.2C358.398 140.733 360.065 140 361.531 140C363.131 140 363.665 139.2 363.131 137.6C362.731 136 361.731 134.267 360.131 132.4C360.665 131.2 361.331 129.933 362.131 128.6C363.065 127.133 364.065 125.8 365.131 124.6C366.198 123.4 367.331 122.467 368.531 121.8C369.731 121 370.931 120.6 372.131 120.6C373.065 120.6 373.731 120.933 374.131 121.6C374.531 122.133 374.731 122.8 374.731 123.6C374.731 128.4 373.665 133.533 371.531 139C369.398 144.333 366.865 149.267 363.931 153.8C361.665 153.8 359.665 154.4 357.931 155.6C356.198 156.667 355.331 158.533 355.331 161.2C355.331 162.133 355.531 163.133 355.931 164.2Z" fill="white"/>
<path d="M409.097 176.4C409.097 174.667 408.964 172.8 408.697 170.8C408.564 168.8 408.164 166.8 407.497 164.8C404.164 174.267 401.43 183 399.297 191C397.164 199 396.097 205.2 396.097 209.6C396.097 212.133 396.697 213.4 397.897 213.4C398.83 213.4 399.897 212.2 401.097 209.8C402.43 207.4 403.697 204.333 404.897 200.6C406.097 197 407.097 193 407.897 188.6C408.697 184.333 409.097 180.267 409.097 176.4Z" fill="white"/>
<path fill-rule="evenodd" clip-rule="evenodd" d="M590 0H0V260H590V0ZM337.18 74.3999C338.78 74.3999 340.38 74.8665 341.98 75.7998C343.713 76.7332 345.18 77.8665 346.38 79.2C347.58 80.5332 348.38 81.8665 348.78 83.2C349.313 84.5332 349.18 85.5999 348.38 86.3999C346.646 88.1333 344.58 91.2 342.18 95.5999C339.78 99.8665 337.246 104.8 334.58 110.4C332.046 115.866 329.513 121.6 326.98 127.6C324.446 133.467 322.113 138.933 319.98 144C317.98 149.067 316.313 153.333 314.98 156.8C313.78 160.267 313.18 162.2 313.18 162.6C313.18 163.667 313.58 164.2 314.38 164.2C315.98 164.2 318.046 163.133 320.58 161C323.113 158.866 325.58 156.467 327.98 153.8C330.513 151 332.78 148.4 334.78 146C335.946 144.523 336.863 143.363 337.53 142.52L337.819 142.156C338.114 141.634 338.418 141.115 338.731 140.6C340.598 137.533 342.598 134.866 344.731 132.6C346.865 130.2 348.798 128.667 350.531 128C352.398 124.267 354.998 120.866 358.331 117.8C361.665 114.6 365.198 113 368.931 113C370.931 113 372.998 113.667 375.131 115C377.265 116.333 379.198 118.067 380.931 120.2C382.665 122.2 384.065 124.533 385.131 127.2C386.331 129.866 386.931 132.6 386.931 135.4C386.931 138.067 386.131 141.467 384.531 145.6C382.931 149.733 380.798 153.866 378.131 158C381.598 157.067 384.931 155.067 388.131 152C389.617 150.573 391.117 149.067 392.629 147.482C392.29 146.862 392.246 146.302 392.497 145.8C392.764 145.133 393.297 144.667 394.097 144.4C394.689 144.045 395.333 143.847 396.03 143.807C396.678 143.086 397.329 142.351 397.982 141.602C401.186 133.7 404.558 125.966 408.097 118.4C411.964 110 415.564 102.533 418.897 96C422.364 89.4666 425.364 84.2666 427.897 80.3999C430.564 76.3999 432.364 74.3999 433.297 74.3999C435.164 74.3999 436.964 74.9333 438.697 76C440.43 76.9333 441.83 78.0667 442.897 79.3999C444.097 80.5999 444.897 81.8665 445.297 83.2C445.697 84.5332 445.497 85.5999 444.697 86.3999C443.097 88 441.164 90.6665 438.897 94.3999C436.63 98.1333 434.164 102.6 431.497 107.8C428.964 112.866 426.297 118.533 423.497 124.8C420.83 130.933 418.164 137.267 415.497 143.8C423.097 142.866 429.097 141.333 433.497 139.2C434.315 138.791 435.062 138.399 435.736 138.025L435.825 137.8C437.692 133.267 439.425 129.2 441.025 125.6C442.758 121.866 444.292 118.866 445.625 116.6C446.958 114.2 447.825 113 448.225 113C449.825 113 451.492 113.467 453.225 114.4C454.958 115.333 456.425 116.467 457.625 117.8C458.825 119 459.625 120.333 460.025 121.8C460.558 123.133 460.425 124.2 459.625 125C458.825 125.8 457.625 128 456.025 131.6C454.425 135.2 452.758 139.2 451.025 143.6C449.292 147.866 447.758 151.866 446.425 155.6C445.225 159.333 444.625 161.733 444.625 162.8C444.625 163.733 445.025 164.2 445.825 164.2C447.425 164.2 449.492 163.133 452.025 161C454.558 158.866 457.025 156.467 459.425 153.8C461.958 151 464.225 148.4 466.225 146C468.358 143.467 469.692 141.866 470.225 141.2C470.892 140.533 471.492 140.2 472.025 140.2C472.825 140.2 473.425 140.6 473.825 141.4C474.358 142.2 474.292 143.067 473.625 144C473.492 144.267 472.758 145.4 471.425 147.4C470.092 149.267 468.425 151.533 466.425 154.2C464.425 156.866 462.158 159.733 459.625 162.8C457.225 165.733 454.692 168.533 452.025 171.2C449.492 173.733 446.958 175.866 444.425 177.6C441.892 179.2 439.558 180 437.425 180C436.625 180 435.558 179.733 434.225 179.2C432.892 178.533 431.625 177.667 430.425 176.6C429.092 175.533 427.958 174.333 427.025 173C426.092 171.667 425.625 170.333 425.625 169C425.625 167.533 426.158 165.133 427.225 161.8C428.158 158.467 429.425 154.733 431.025 150.6C431.174 150.18 431.324 149.759 431.476 149.337L431.297 149.4C428.23 150.467 424.964 151.2 421.497 151.6C418.03 151.866 414.964 152 412.297 152C412.297 152.133 412.23 152.267 412.097 152.4V152.8C413.564 156.267 414.83 160.267 415.897 164.8C416.964 169.2 417.497 173.667 417.497 178.2C417.497 182.866 416.897 187.8 415.697 193C414.63 198.2 413.164 203 411.297 207.4C409.43 211.933 407.23 215.667 404.697 218.6C402.164 221.533 399.497 223 396.697 223C395.363 223 393.83 222.467 392.097 221.4C390.23 220.333 388.497 218.933 386.897 217.2C385.164 215.467 383.697 213.4 382.497 211C381.297 208.733 380.697 206.267 380.697 203.6C380.697 197.333 382.097 189.4 384.897 179.8C387.017 172.168 389.6 164.2 392.647 155.894C390.684 157.986 388.646 159.888 386.531 161.6C381.065 166 375.598 168.4 370.131 168.8C367.065 172.133 363.931 174.866 360.731 177C357.531 179 354.398 180 351.331 180C349.465 180 347.398 179.4 345.131 178.2C342.998 177 340.931 175.467 338.931 173.6C337.065 171.6 335.465 169.333 334.131 166.8C332.798 164.267 332.131 161.6 332.131 158.8C332.131 158.404 332.148 158 332.18 157.587C330.873 159.255 329.472 160.993 327.98 162.8C325.58 165.733 323.046 168.533 320.38 171.2C317.846 173.733 315.313 175.866 312.78 177.6C310.246 179.2 307.98 180 305.98 180C305.18 180 304.113 179.667 302.78 179C301.313 178.333 299.98 177.533 298.78 176.6C297.446 175.533 296.313 174.333 295.38 173C294.446 171.667 293.98 170.333 293.98 169C293.98 167.133 294.913 163.533 296.78 158.2C296.887 157.861 296.997 157.519 297.109 157.174C295.678 158.968 294.113 160.843 292.411 162.8C289.744 165.733 286.944 168.533 284.011 171.2C281.078 173.733 278.011 175.866 274.811 177.6C271.744 179.2 268.744 180 265.811 180C264.611 180 263.211 179.6 261.611 178.8C260.144 178 258.744 177 257.411 175.8C256.078 174.6 255.011 173.267 254.211 171.8C253.278 170.2 252.811 168.6 252.811 167C252.811 165 253.411 161.933 254.611 157.8C254.745 157.279 254.887 156.749 255.037 156.211C253.507 158.294 251.788 160.49 249.88 162.8C247.346 165.733 244.746 168.533 242.08 171.2C239.546 173.733 237.013 175.866 234.48 177.6C231.946 179.2 229.68 180 227.68 180C226.88 180 225.746 179.667 224.28 179C222.946 178.333 221.613 177.533 220.28 176.6C219.08 175.533 218.013 174.333 217.08 173C216.146 171.667 215.68 170.333 215.68 169C215.68 167 216.413 163.933 217.88 159.8C219.48 155.533 221.346 150.933 223.48 146C220.946 150 218.28 154.067 215.48 158.2C212.68 162.2 209.946 165.8 207.28 169C204.613 172.2 202.08 174.866 199.68 177C197.28 179 195.213 180 193.48 180C192.68 180 191.613 179.667 190.28 179C188.946 178.333 187.68 177.533 186.48 176.6C185.146 175.533 184.013 174.333 183.08 173C182.146 171.667 181.68 170.333 181.68 169C181.68 167.533 182.213 165.133 183.28 161.8C183.801 159.937 184.427 157.948 185.157 155.835C183.521 157.6 181.802 159.255 180 160.8C177.2 163.2 174.133 165.133 170.8 166.6C167.467 168.067 163.933 168.8 160.2 168.8C156.467 172.667 152.6 175.866 148.6 178.4C144.6 180.8 140.8 182 137.2 182C133.467 182 130.133 181.4 127.2 180.2C124.267 179 121.8 177.4 119.8 175.4C117.8 173.4 116.267 171.133 115.2 168.6C114.133 165.933 113.6 163.2 113.6 160.4C113.6 159.067 114.4 156.067 116 151.4C117.6 146.733 119.667 141.2 122.2 134.8C124.733 128.4 127.533 121.667 130.6 114.6C133.667 107.533 136.6 101.067 139.4 95.2C142.333 89.2 145 84.2666 147.4 80.3999C149.933 76.5332 151.8 74.5999 153 74.5999C154.6 74.5999 156.267 75.0667 158 76C159.733 76.9333 161.2 78.0667 162.4 79.3999C163.6 80.5999 164.4 81.9333 164.8 83.3999C165.333 84.7332 165.2 85.7998 164.4 86.5999C163.067 87.9333 161.333 90.3999 159.2 94C157.2 97.5999 154.933 101.933 152.4 107C149.867 111.933 147.267 117.333 144.6 123.2C142.067 128.933 139.6 134.6 137.2 140.2C139.6 137 142.067 133.8 144.6 130.6C147.133 127.4 149.667 124.533 152.2 122C154.733 119.333 157.067 117.2 159.2 115.6C161.467 113.866 163.467 113 165.2 113C166.667 113 168.2 113.467 169.8 114.4C171.533 115.333 173.133 116.533 174.6 118C176.2 119.467 177.467 121.133 178.4 123C179.467 124.733 180 126.4 180 128C180 132.667 178.933 137.667 176.8 143C174.667 148.333 171.867 153.533 168.4 158.6C172.267 158.067 175.933 156.2 179.4 153C182.936 149.726 186.601 145.873 190.394 141.441C190.878 140.167 191.373 138.886 191.88 137.6C193.746 133.2 195.48 129.2 197.08 125.6C198.813 121.866 200.346 118.866 201.68 116.6C203.013 114.2 203.88 113 204.28 113C205.88 113 207.546 113.467 209.28 114.4C211.013 115.333 212.48 116.467 213.68 117.8C214.88 119 215.68 120.333 216.08 121.8C216.613 123.133 216.48 124.2 215.68 125C214.88 125.8 213.746 127.8 212.28 131C210.813 134.2 209.28 137.733 207.68 141.6C206.213 145.333 204.88 148.933 203.68 152.4C202.613 155.733 202.08 157.866 202.08 158.8C202.08 159.866 202.48 160.4 203.28 160.4C204.346 160.4 205.813 159.333 207.68 157.2C209.546 154.933 211.613 152.2 213.88 149C216.146 145.667 218.413 142.067 220.68 138.2L227.28 127.2C229.28 123.733 231.013 120.8 232.48 118.4C233.946 115.866 234.813 114.4 235.08 114C235.48 113.6 235.88 113.4 236.28 113.4C236.413 113.133 236.746 113 237.28 113C238.08 113 239.146 113.467 240.48 114.4C241.946 115.2 243.28 116.267 244.48 117.6C245.813 118.933 246.946 120.333 247.88 121.8C248.946 123.133 249.48 124.333 249.48 125.4C249.48 125.8 249.08 126.866 248.28 128.6C247.613 130.333 246.746 132.467 245.68 135C244.613 137.533 243.413 140.267 242.08 143.2C240.88 146 239.746 148.733 238.68 151.4C237.613 153.933 236.68 156.267 235.88 158.4C235.213 160.4 234.88 161.8 234.88 162.6C234.88 163.667 235.28 164.2 236.08 164.2C237.68 164.2 239.746 163.133 242.28 161C244.813 158.866 247.28 156.467 249.68 153.8C252.213 151 254.48 148.4 256.48 146C258.235 143.777 259.425 142.272 260.051 141.487C261.71 136.967 263.563 132.205 265.611 127.2C268.011 121.333 270.478 115.667 273.011 110.2C271.678 110.333 270.544 110.467 269.611 110.6H267.411C266.078 110.6 264.944 110 264.011 108.8C263.211 107.6 262.611 106.333 262.211 105C261.811 103.533 261.678 102.267 261.811 101.2C261.944 100 262.278 99.3999 262.811 99.3999C263.078 99.3999 263.344 99.5332 263.611 99.7998L265.411 100.4C266.344 100.667 267.611 100.933 269.211 101.2C270.944 101.333 273.211 101.4 276.011 101.4H277.411C280.611 94.7332 283.478 89.2666 286.011 85C288.678 80.5999 290.611 78.3999 291.811 78.3999C293.411 78.3999 295.078 78.8665 296.811 79.7998C298.544 80.7332 300.011 81.8665 301.211 83.2C302.411 84.5332 303.211 85.8665 303.611 87.2C304.144 88.5332 304.011 89.5999 303.211 90.3999C302.278 91.3333 301.211 92.7332 300.011 94.5999C298.944 96.4666 297.678 98.6665 296.211 101.2H313.411C314.078 101.2 314.611 101.533 315.011 102.2C315.544 102.733 315.878 103.4 316.011 104.2C316.278 104.866 316.344 105.533 316.211 106.2C316.078 106.733 315.678 107 315.011 107C313.544 107 310.678 107.2 306.411 107.6C302.144 107.866 297.478 108.267 292.411 108.8C289.878 114 287.278 119.6 284.611 125.6C281.944 131.6 279.544 137.333 277.411 142.8C275.278 148.133 273.544 152.866 272.211 157C270.878 161 270.211 163.733 270.211 165.2C270.211 166.533 270.811 167.2 272.011 167.2C274.544 167.2 277.478 166 280.811 163.6C284.278 161.067 287.544 158.267 290.611 155.2C293.811 152.133 296.544 149.2 298.811 146.4C300.648 144.257 301.938 142.739 302.681 141.845C302.814 141.511 302.947 141.175 303.082 140.838C303.246 140.428 303.412 140.015 303.58 139.6C306.38 132.533 309.446 125.2 312.78 117.6C316.246 109.866 319.58 102.8 322.78 96.3999C325.98 90 328.846 84.7332 331.38 80.5999C334.046 76.4666 335.98 74.3999 337.18 74.3999ZM473.025 75.7998C471.158 75 469.492 74.5999 468.025 74.5999C466.692 74.5999 465.225 75.6665 463.625 77.7998C462.158 79.9331 460.758 82.4666 459.425 85.3999C458.092 88.2 456.958 91.0667 456.025 94C455.225 96.7998 454.825 98.9333 454.825 100.4C454.825 101.866 455.625 103.4 457.225 105C458.825 106.6 460.358 107.4 461.825 107.4C462.492 107.4 463.358 106.733 464.425 105.4C465.625 103.933 467.025 102.133 468.625 100C470.225 97.7332 472.025 95.3333 474.025 92.7998C476.025 90.1333 478.225 87.5999 480.625 85.2C481.558 84.2666 481.692 83.2 481.025 82C480.358 80.7998 479.292 79.6665 477.825 78.5999C476.492 77.3999 474.892 76.4666 473.025 75.7998Z" fill="white"/>
</svg>
